<?xml version="1.0" standalone="no"?><!DOCTYPE svg PUBLIC "-//W3C//DTD SVG 1.1//EN" "http://www.w3.org/Graphics/SVG/1.1/DTD/svg11.dtd"><svg t="1541922745360" class="icon" style="" viewBox="0 0 1024 1024" version="1.1" xmlns="http://www.w3.org/2000/svg" p-id="1949" xmlns:xlink="http://www.w3.org/1999/xlink" width="128" height="128"><defs><style type="text/css"></style></defs><path d="M924.85714311 520q0 134.46857156-78.48 241.88571468t-202.76571469 148.66285688q-14.46857156 2.67428531-21.15428531-3.73714313t-6.68571469-16.08l0-113.04q0-51.97714313-27.84-76.08 30.54857156-3.22285688 54.92571469-9.63428531t50.36571469-20.88 43.40571468-35.62285687 28.38857157-56.26285688 10.97142843-80.64q0-64.83428531-42.30857156-110.36571469 19.81714313-48.75428531-4.28571469-109.26857156-15.01714313-4.83428531-43.40571468 5.89714313t-49.26857157 23.58857156l-20.36571468 12.85714312q-49.81714313-13.92-102.85714313-13.92t-102.85714312 13.92q-8.57142844-5.89714313-22.76571469-14.46857156t-44.74285688-20.64-46.08-7.23428531q-23.58857156 60.54857156-3.73714312 109.26857156-42.30857156 45.53142844-42.30857156 110.36571469 0 45.53142844 10.97142843 80.36571469t28.11428532 56.26285687 43.13142843 35.89714313 50.36571469 20.88 54.92571469 9.63428531q-21.42857156 19.26857156-26.26285688 55.16571469-11.24571469 5.34857156-24.10285687 8.02285687t-30.54857156 2.67428531-35.07428532-11.52-29.72571468-33.49714312q-10.18285687-17.14285687-25.98857157-27.84t-26.50285687-12.85714313l-10.73142844-1.61142843q-11.24571469 0-15.53142844 2.4t-2.67428531 6.17142843 4.83428531 7.50857157 6.96 6.41142843l3.73714313 2.67428532q11.79428531 5.34857156 23.31428531 20.36571468t16.86857156 27.32571469l5.34857157 12.30857156q6.96 20.36571469 23.58857156 32.94857157t35.89714312 16.08 37.23428532 3.73714312 29.72571468-1.88571469l12.30857157-2.16q0 20.36571469 0.27428531 47.69142844t0.27428531 28.93714313q0 9.63428531-6.96 16.08t-21.42857156 3.73714312q-124.28571469-41.24571469-202.76571469-148.66285687t-78.48-241.88571469q0-111.97714312 55.16571469-206.50285688t149.72571469-149.72571468 206.50285687-55.16571469 206.50285688 55.16571469 149.72571468 149.72571468 55.16571469 206.50285688z" fill="#515151" p-id="1950"></path></svg>